<svg xmlns="http://www.w3.org/2000/svg" viewBox="0 0 158.36 25.67"><defs><style>.a,.b{fill:#fff;}.b{font-size:20.87px;font-family:Nunito-Bold, Nunito;font-weight:700;}.c{letter-spacing:0.08em;}.d{letter-spacing:0.07em;}.e{letter-spacing:0.07em;}</style></defs><path class="a" d="M12.46,23.23h-.08A10.89,10.89,0,0,1,4.76,20,10.66,10.66,0,0,1,1.69,12.4,10.79,10.79,0,1,1,12.46,23.23ZM12.46,0A12.5,12.5,0,0,0,0,12.38a12.29,12.29,0,0,0,3.6,8.83,12.34,12.34,0,0,0,8.78,3.71h.08A12.46,12.46,0,1,0,12.46,0Z"/><path class="a" d="M16.86,15.59H8.06a2.06,2.06,0,0,1-.22-4.1,4.54,4.54,0,0,0,.91,2.44.81.81,0,0,0,1.3-1,3.23,3.23,0,0,1-.61-1.86,3.14,3.14,0,0,1,6.12-1,1.9,1.9,0,0,0-.5.24.8.8,0,0,0-.33,1,.83.83,0,0,0,1,.44l1-.33h.2a2,2,0,0,1,2.05,2A2.07,2.07,0,0,1,16.86,15.59Zm.31-5.71A4.75,4.75,0,0,0,8,9.88a3.66,3.66,0,0,0,.06,7.31h8.8a3.66,3.66,0,0,0,.31-7.31Z"/><text class="b" transform="translate(28.15 19.93)"><tspan class="c">klein</tspan><tspan class="d" x="53.63" y="0">ew</tspan><tspan class="c" x="85.66" y="0">ol</tspan><tspan class="e" x="106.38" y="0">k</tspan><tspan x="119.13" y="0">e</tspan></text></svg>