<svg xmlns="http://www.w3.org/2000/svg" viewBox="0 0 1030.92 167.09"><defs><style>.a,.b{fill:#fff;}.b{font-size:135.85px;font-family:Nunito-Bold, Nunito;font-weight:700;letter-spacing:0.08em;}.c{letter-spacing:0.07em;}.d{letter-spacing:0.08em;}.e{letter-spacing:0em;}</style></defs><path class="a" d="M191.7,270.11h-.54a70.48,70.48,0,0,1-49.57-20.91,69.32,69.32,0,0,1-20-49.56c.18-38.39,31.72-69.75,70.65-69.75a70.11,70.11,0,0,1-.54,140.22Zm0-151.21c-44.52,0-80.74,36.22-81.11,80.56a81.23,81.23,0,0,0,80.57,81.64h.54c44.52,0,80.74-36.22,81.1-80.56C273.16,155.84,236.94,119.26,191.7,118.9Z" transform="translate(-110.59 -118.9)"/><path class="a" d="M220.36,220.37H163A13.31,13.31,0,0,1,149.7,207a13.46,13.46,0,0,1,11.9-13.34,30,30,0,0,0,6,15.86,5.28,5.28,0,1,0,8.47-6.31,21,21,0,0,1-4-12.07,20.46,20.46,0,0,1,39.83-6.49,13.63,13.63,0,0,0-3.24,1.62,5.18,5.18,0,0,0-2.16,6.67,5.39,5.39,0,0,0,6.49,2.88l6.3-2.16h1.27A13.31,13.31,0,0,1,233.87,207,13.46,13.46,0,0,1,220.36,220.37Zm2-37.13a30.88,30.88,0,0,0-59.66,0,23.79,23.79,0,0,0,.36,47.58h57.32a23.83,23.83,0,0,0,2-47.58Z" transform="translate(-110.59 -118.9)"/><text class="b" transform="translate(183.23 129.74)">klein<tspan class="c" x="349.13" y="0">ew</tspan><tspan x="557.65" y="0">ol</tspan><tspan class="d" x="692.55" y="0">k</tspan><tspan class="e" x="775.55" y="0">e</tspan></text></svg>